# xmcd CD database file
#
# Track frame offsets:
#	150
#	2820
#	26100
#	47627
#	68665
#	100802
#	131725
#	138207
#	156337
#	185790
#	205867
#	229487
#	247477
#	270645
#
# Disc length: 4011 seconds
#
# Revision: 0
# Processed by: cddbd v1.5.2PL0 Copyright (c) Steve Scherf et al.
# Submitted via: CDex 1.50beta10
#
DISCID=d20fa90e
DTITLE=Tlalae Makhene - The Ascension of the Enlightened
DYEAR=2004
DGENRE=Jazz
TTITLE0=Intro
TTITLE1=Bingelela
TTITLE2=Ritual Dance
TTITLE3=Angilalanga
TTITLE4=Song For Bheki
TTITLE5=Will You Make My Soup Hot and Silver?
TTITLE6=Piano Interlude
TTITLE7=Abanini
TTITLE8=Divine Intervention
TTITLE9=Holilili
TTITLE10=Friends And I
TTITLE11=Dreaming Of Brazil
TTITLE12=The Stork And The Princess
TTITLE13=Yakhal' Inkomo
EXTD=YEAR: 2004
EXTT0=
EXTT1=
EXTT2=
EXTT3=
EXTT4=
EXTT5=
EXTT6=
EXTT7=
EXTT8=
EXTT9=
EXTT10=
EXTT11=
EXTT12=
EXTT13=
PLAYORDER=
